<!-- github -->
<svg xmlns="http://www.w3.org/2000/svg" width="34" height="32" fill="none">
    <path fill="url(#a)" d="M17.16 3.418c-6.727 0-12.463 4.464-13.54 10.541s2.822 11.972 9.205 13.917c.688.113.934-.273.934-.605 0-.298-.011-1.088-.015-2.14-3.816.756-4.622-1.683-4.622-1.683-.25-.758-.79-1.41-1.522-1.835-1.237-.78.095-.761.095-.761.881.11 1.656.588 2.1 1.293.375.624 1.007 1.086 1.756 1.282.749.195 1.552.11 2.231-.239a2.604 2.604 0 0 1 .873-1.678c-3.044-.316-6.245-1.393-6.245-6.203-.017-1.245.488-2.447 1.411-3.361a4.16 4.16 0 0 1 .137-3.322s1.151-.338 3.77 1.285a14.142 14.142 0 0 1 6.865 0c2.62-1.624 3.77-1.285 3.77-1.285.508 1.05.557 2.24.137 3.322.927.914 1.431 2.12 1.409 3.366 0 4.822-3.204 5.882-6.26 6.193.66.616.997 1.462.929 2.322 0 1.679-.017 3.032-.017 3.444 0 .336.245.726.945.603 6.38-1.949 10.275-7.844 9.196-13.92C29.622 7.88 23.887 3.416 17.16 3.418Z"/>
    <defs>
        <radialGradient id="a" cx="0" cy="0" r="1" gradientTransform="matrix(0 12.2395 -13.7193 0 17.161 15.657)" gradientUnits="userSpaceOnUse">
            <stop offset=".219" stop-color="#4529BE"/>
            <stop offset=".813" stop-color="#CFA6E6"/>
        </radialGradient>
    </defs>
</svg>